<?xml version="1.0" standalone="no"?>
<!DOCTYPE svg PUBLIC "-//W3C//DTD SVG 20010904//EN"
 "http://www.w3.org/TR/2001/REC-SVG-20010904/DTD/svg10.dtd">
<svg version="1.0" xmlns="http://www.w3.org/2000/svg"
 width="562.000000pt" height="257.000000pt" viewBox="0 0 562.000000 257.000000"
 preserveAspectRatio="xMidYMid meet">

<g transform="translate(0.000000,257.000000) scale(0.100000,-0.100000)"
fill="#000000" stroke="none">
<path d="M3031 2560 c-40 -9 -77 -35 -105 -74 -21 -27 -21 -31 -21 -1194 l0
-1167 23 -33 c13 -18 41 -41 63 -52 38 -20 58 -20 1277 -18 l1239 3 36 28 c78
59 72 -43 72 1227 0 624 -3 1147 -7 1162 -10 35 -53 85 -92 106 -29 16 -119
17 -1241 19 -665 0 -1225 -2 -1244 -7z m787 -632 c-2 -25 -8 -34 -25 -36 -17
-3 -23 2 -23 16 0 34 11 52 32 52 16 0 19 -6 16 -32z m840 0 c-2 -28 -8 -34
-30 -36 -23 -3 -28 1 -28 18 0 26 20 49 43 50 15 0 18 -7 15 -32z m232 -137
l0 -168 -60 -6 c-100 -11 -141 19 -148 107 -7 87 42 153 108 144 29 -4 30 -3
30 34 0 27 4 38 15 38 8 0 15 5 15 10 0 6 9 10 20 10 19 0 20 -7 20 -169z
m440 0 l0 -168 -60 -6 c-100 -11 -141 19 -148 107 -7 87 42 153 108 144 29 -4
30 -3 30 34 0 27 4 38 15 38 8 0 15 5 15 10 0 6 9 10 20 10 19 0 20 -7 20
-169z m-2010 29 c0 -109 2 -122 21 -141 16 -16 28 -20 53 -15 50 10 56 27 56
158 l0 118 26 0 26 0 -4 -135 c-3 -130 -4 -136 -29 -161 -34 -34 -92 -41 -139
-17 -52 27 -60 52 -60 191 l0 122 25 0 25 0 0 -120z m385 44 c31 -12 45 -59
45 -154 l0 -90 -35 0 -35 0 0 90 c0 73 -3 92 -16 97 -13 5 -13 7 -2 14 8 5 9
9 2 9 -7 0 -22 -9 -35 -19 -21 -17 -24 -29 -28 -105 -3 -83 -4 -86 -27 -86
l-24 0 0 121 0 122 33 -6 c19 -3 40 -1 48 4 16 10 51 12 74 3z m504 -9 c44
-22 69 -116 35 -129 -9 -3 -45 -6 -80 -6 -35 0 -64 -3 -64 -8 0 -4 7 -18 16
-30 19 -27 50 -28 66 -2 15 24 63 28 54 5 -3 -8 -1 -15 4 -15 6 0 10 -9 10
-20 0 -14 -11 -22 -40 -30 -111 -30 -190 48 -161 158 21 77 94 112 160 77z
m211 5 c0 -7 6 -7 19 0 22 11 80 13 105 4 21 -8 22 -72 1 -81 -16 -5 -49 27
-38 37 2 3 11 -3 18 -13 9 -13 15 -15 20 -6 16 24 -51 34 -88 12 -20 -12 2
-36 48 -51 62 -21 84 -56 63 -99 -19 -39 -60 -56 -115 -48 -24 3 -46 12 -48
18 -17 56 -15 67 7 67 13 0 29 -9 36 -20 14 -23 54 -27 71 -6 14 16 3 26 -49
46 -53 20 -70 39 -70 79 -1 29 -3 33 -11 19 -5 -10 -16 -15 -25 -11 -25 10
-34 -16 -34 -104 l0 -83 -30 0 -31 0 3 118 3 117 43 1 c24 1 46 5 49 8 10 10
53 7 53 -4z m651 -19 c28 -28 29 -33 29 -125 l0 -96 -42 -1 c-107 -2 -120 0
-139 17 -40 36 -10 117 51 134 19 5 43 10 53 10 21 0 22 13 3 29 -13 11 -93 8
-104 -4 -13 -13 10 -16 24 -4 15 12 17 12 12 -1 -5 -15 -48 -28 -48 -14 0 23
26 74 39 77 51 14 93 6 122 -22z m-1251 -101 l0 -120 -25 0 -25 0 0 120 0 120
25 0 25 0 0 -120z m90 58 c13 -35 27 -67 31 -73 4 -5 8 -18 10 -29 2 -10 16
18 31 63 14 44 23 81 19 81 -4 0 -16 -27 -26 -60 -10 -33 -20 -58 -23 -56 -2
3 6 34 18 70 21 64 22 66 56 66 30 0 34 -3 30 -18 -4 -10 -21 -63 -39 -117
l-34 -100 -35 -3 -36 -3 -36 108 c-20 59 -36 114 -36 121 0 6 11 12 24 12 20
0 27 -10 46 -62z m750 -58 l0 -120 -30 0 -30 0 0 113 c0 63 3 117 7 120 3 4
17 7 30 7 23 0 23 -1 23 -120z m-932 -437 l-3 -168 -71 -2 c-82 -3 -117 15
-133 70 -9 30 -9 29 -10 -20 l-1 -53 -35 0 -35 0 0 81 c0 88 -10 119 -40 119
-30 0 -40 -31 -40 -119 0 -80 0 -81 -25 -81 l-26 0 3 123 c3 118 4 122 26 125
12 2 22 -2 22 -8 0 -7 6 -7 22 1 31 16 76 14 98 -6 10 -9 21 -33 25 -53 l7
-37 12 34 c15 45 56 75 101 73 34 -1 35 -1 35 37 0 40 8 49 48 50 l22 1 -2
-167z m730 135 c-2 -25 -8 -34 -25 -36 -19 -3 -23 1 -23 26 0 34 6 42 32 42
16 0 19 -6 16 -32z m312 -138 l0 -170 -30 0 -30 0 0 158 c0 163 4 182 42 182
17 0 18 -13 18 -170z m340 1 l0 -170 -72 0 c-39 0 -79 4 -89 10 -57 30 -65
155 -14 209 22 23 38 30 67 30 38 0 38 0 38 39 0 40 7 47 53 50 16 1 17 -13
17 -168z m-1850 -6 l0 -165 -25 0 -25 0 0 165 0 165 25 0 25 0 0 -165z m960
121 l0 -34 63 -4 c34 -2 73 -1 86 2 13 3 39 4 57 2 l34 -4 0 -124 0 -124 -25
0 -25 0 0 105 c0 63 -4 105 -10 105 -5 0 -10 -4 -10 -10 0 -5 -11 -10 -24 -10
-31 0 -36 -15 -36 -111 l0 -79 -64 0 c-88 0 -96 9 -96 116 0 68 -3 84 -15 84
-8 0 -15 9 -15 20 0 11 7 23 15 26 8 4 15 14 15 24 0 32 11 50 31 50 15 0 19
-7 19 -34z m-118 -40 c25 -6 28 -10 25 -41 -2 -28 -6 -35 -23 -35 -12 0 -25 7
-28 16 -5 14 -4 15 9 4 17 -14 34 -5 19 10 -5 5 -28 6 -52 3 -56 -7 -53 -31 6
-53 55 -21 75 -42 75 -81 0 -57 -67 -85 -150 -63 -29 8 -38 71 -10 80 10 3 19
4 20 2 25 -47 63 -62 86 -34 18 22 8 32 -49 51 -71 24 -90 67 -50 118 18 23
56 36 85 31 6 -1 22 -5 37 -8z m558 -24 c17 -21 20 -40 20 -122 l0 -97 -81 1
c-76 1 -83 3 -102 28 -38 51 1 117 76 125 37 4 47 9 45 22 -5 26 -64 27 -78 2
-11 -21 -50 -30 -50 -11 0 8 19 58 27 69 5 8 70 17 96 13 15 -2 36 -16 47 -30z
m646 7 c14 -12 34 -70 34 -101 0 -16 -10 -18 -80 -18 -87 0 -100 -10 -60 -50
26 -26 34 -25 59 6 15 19 26 24 41 19 11 -4 18 -11 15 -16 -4 -5 -1 -9 4 -9
19 0 12 -39 -8 -50 -29 -15 -108 -12 -141 5 -53 27 -65 136 -22 194 34 47 114
57 158 20z m-1506 -66 c0 -99 7 -116 45 -118 42 -1 55 28 53 115 l-1 75 -6
-82 c-4 -46 -12 -88 -19 -95 -9 -9 -9 -4 -2 23 6 18 10 62 10 95 0 47 4 63 16
68 42 16 44 12 44 -118 l0 -125 -75 0 c-107 0 -115 9 -115 137 0 54 3 102 7
105 3 4 15 7 25 7 16 0 18 -9 18 -87z m1180 -472 l0 -168 -66 -6 c-111 -11
-151 28 -142 140 4 48 10 61 38 86 25 23 40 28 66 25 33 -4 34 -3 34 30 0 36
21 61 53 62 15 0 17 -15 17 -169z m-1287 150 c21 -8 32 -27 51 -83 10 -32 -39
-23 -53 10 l-11 27 19 -22 c22 -26 31 -29 31 -9 0 17 -22 26 -74 32 -48 5 -76
-10 -76 -41 0 -20 9 -26 66 -45 82 -28 104 -48 104 -98 0 -49 -22 -79 -69 -93
-38 -11 -113 -6 -138 9 -6 4 -14 28 -18 55 -7 46 -7 47 19 47 19 0 26 -5 26
-19 0 -11 5 -23 10 -26 6 -4 8 -9 6 -13 -2 -4 13 -8 34 -10 42 -3 70 17 70 47
0 25 -19 39 -78 56 -59 18 -82 45 -82 95 0 36 25 70 60 83 24 9 77 8 103 -2z
m597 -47 l0 -37 89 7 c85 7 90 6 117 -17 28 -24 29 -29 32 -126 l4 -101 -39
-1 c-150 -3 -237 2 -245 13 -4 7 -8 50 -8 96 0 66 -3 82 -15 82 -8 0 -15 8
-15 19 0 10 7 24 15 31 8 7 15 25 15 41 0 24 4 29 25 29 22 0 25 -4 25 -36z
m-343 -48 c27 -23 28 -29 31 -125 l4 -101 -39 -1 c-21 -1 -57 -1 -80 -2 -51
-1 -83 24 -83 65 0 56 50 98 116 98 24 0 32 14 15 25 -30 18 -128 9 -108 -11
3 -4 13 -1 22 6 16 13 20 3 7 -17 -4 -7 -17 -10 -28 -7 -20 5 -20 8 -9 42 14
40 32 50 87 51 25 1 46 -7 65 -23z m234 5 c22 -18 24 -28 27 -125 l4 -106 -36
0 -35 0 -3 93 -3 92 -30 0 -30 0 -5 -90 c-5 -90 -5 -90 -33 -93 l-28 -3 3 118
3 118 38 1 c20 1 40 4 44 8 13 13 61 5 84 -13z m550 0 c22 -18 24 -28 27 -125
l4 -106 -36 0 -35 0 -3 93 -3 92 -30 0 c-35 0 -43 -19 -44 -117 -1 -66 -2 -68
-26 -68 l-26 0 3 118 3 117 37 0 c20 1 40 4 44 8 14 14 62 7 85 -12z m434 -3
c31 -28 53 -107 33 -119 -7 -5 -43 -9 -80 -9 -72 0 -85 -11 -52 -44 21 -22 51
-20 64 4 12 23 50 27 50 5 0 -8 5 -15 10 -15 6 0 10 -9 10 -20 0 -14 -11 -22
-41 -30 -98 -27 -169 20 -169 110 0 27 5 59 11 72 15 33 69 68 106 68 19 0 43
-9 58 -22z m203 -7 c3 -19 0 -22 -12 -18 -10 4 -19 1 -22 -8 -4 -8 -10 -15
-16 -15 -5 0 -6 5 -2 11 5 8 1 8 -13 0 -22 -11 -33 -56 -33 -138 0 -50 -1 -53
-25 -53 l-26 0 3 118 3 117 37 0 c20 1 40 4 45 8 4 4 19 7 33 5 18 -2 26 -10
28 -27z"/>
<path d="M4611 1914 c0 -11 3 -14 6 -6 3 7 2 16 -1 19 -3 4 -6 -2 -5 -13z"/>
<path d="M4830 1891 c0 -22 5 -43 10 -46 6 -4 10 12 10 39 0 25 -4 46 -10 46
-5 0 -10 -18 -10 -39z"/>
<path d="M4771 1817 c-33 -16 -45 -64 -29 -113 15 -44 44 -56 65 -28 18 24 16
95 -3 122 -8 12 -11 22 -5 22 18 0 33 -40 33 -88 1 -40 2 -43 9 -19 8 29 -2
80 -22 103 -14 17 -17 17 -48 1z"/>
<path d="M5270 1891 c0 -22 5 -43 10 -46 6 -4 10 12 10 39 0 25 -4 46 -10 46
-5 0 -10 -18 -10 -39z"/>
<path d="M5210 1817 c-34 -17 -46 -73 -26 -121 17 -41 48 -49 66 -17 15 29 12
93 -6 119 -8 12 -11 22 -5 22 18 0 33 -40 33 -88 1 -40 2 -43 9 -19 8 29 -2
80 -22 103 -14 17 -17 17 -49 1z"/>
<path d="M3688 1742 c4 -117 9 -127 11 -25 0 50 -2 94 -7 97 -4 2 -6 -30 -4
-72z"/>
<path d="M4140 1819 c-24 -10 -40 -26 -40 -41 0 -5 20 -8 45 -8 50 0 53 4 28
33 -14 16 -15 19 -3 15 8 -2 21 -15 27 -29 8 -15 13 -18 13 -8 0 9 -8 23 -18
32 -21 19 -19 19 -52 6z"/>
<path d="M4196 1675 c-3 -9 0 -15 8 -15 8 0 16 7 20 15 3 9 0 15 -8 15 -8 0
-16 -7 -20 -15z"/>
<path d="M4410 1681 c0 -5 7 -11 14 -14 10 -4 13 -1 9 9 -6 15 -23 19 -23 5z"/>
<path d="M4998 1720 c-44 -13 -49 -19 -38 -41 22 -40 80 -14 80 35 0 18 -3 18
-42 6z"/>
<path d="M4614 1735 c0 -60 1 -84 3 -52 2 32 2 81 0 110 -2 29 -3 3 -3 -58z"/>
<path d="M3673 1400 c0 -25 2 -35 4 -22 2 12 2 32 0 45 -2 12 -4 2 -4 -23z"/>
<path d="M3436 1330 c5 -8 12 -55 15 -105 l5 -90 2 91 c2 75 -1 94 -15 105
-15 12 -16 12 -7 -1z"/>
<path d="M3656 1312 c11 -23 15 -49 11 -79 -3 -28 -1 -40 4 -32 16 26 10 96
-11 120 l-20 24 16 -33z"/>
<path d="M3580 1311 c-25 -47 -1 -141 35 -141 22 0 45 41 45 80 0 65 -55 107
-80 61z"/>
<path d="M4724 1290 c0 -85 2 -120 3 -77 2 42 2 112 0 155 -1 42 -3 7 -3 -78z"/>
<path d="M5050 1406 c0 -19 5 -38 10 -41 6 -4 10 10 10 34 0 23 -4 41 -10 41
-5 0 -10 -15 -10 -34z"/>
<path d="M5034 1318 c9 -12 16 -30 16 -40 0 -9 4 -19 9 -22 5 -4 6 9 1 28 -9
40 -18 56 -31 56 -6 0 -3 -10 5 -22z"/>
<path d="M4961 1294 c-12 -45 -5 -88 20 -110 17 -16 21 -16 37 -1 9 8 22 15
27 14 6 -1 11 9 12 23 l2 25 -8 -25 c-7 -20 -9 -15 -10 27 -1 55 -18 83 -51
83 -13 0 -22 -11 -29 -36z"/>
<path d="M4238 1333 c-15 -4 -18 -16 -18 -73 0 -58 3 -71 19 -80 11 -5 22 -10
25 -10 3 0 6 38 6 85 0 47 -3 84 -7 84 -5 -1 -16 -3 -25 -6z"/>
<path d="M3976 1202 c-3 -6 -1 -14 5 -17 14 -9 20 -2 10 14 -6 8 -11 9 -15 3z"/>
<path d="M4506 1314 c-4 -10 -1 -14 6 -12 15 5 23 28 10 28 -5 0 -13 -7 -16
-16z"/>
<path d="M4570 1231 c-41 -11 -36 -60 7 -61 18 0 43 29 43 51 0 20 -8 22 -50
10z"/>
<path d="M5262 1323 c9 -10 18 -25 21 -33 4 -10 6 -11 6 -2 1 20 -18 52 -31
52 -7 0 -5 -7 4 -17z"/>
<path d="M5192 1318 c-25 -25 -13 -38 33 -38 48 0 55 9 29 34 -18 19 -45 21
-62 4z"/>
<path d="M5269 1184 c-12 -14 -11 -16 5 -13 11 2 21 10 24 17 5 17 -13 15 -29
-4z"/>
<path d="M4923 920 c0 -25 2 -35 4 -22 2 12 2 32 0 45 -2 12 -4 2 -4 -23z"/>
<path d="M4852 842 c-45 -34 -36 -141 13 -150 44 -9 64 99 25 138 -21 21 -16
26 10 10 9 -5 17 -32 21 -67 l6 -58 2 53 c1 40 -4 57 -19 72 -24 24 -29 24
-58 2z"/>
<path d="M3530 736 c0 -14 28 -42 35 -34 2 2 2 14 -2 26 -6 24 -33 31 -33 8z"/>
<path d="M4307 846 c-26 -20 -21 -149 6 -154 13 -3 17 3 17 23 0 53 51 95 116
95 24 0 32 14 15 25 -30 18 -128 9 -108 -11 3 -4 13 -1 22 6 16 13 20 3 7 -17
-4 -7 -17 -10 -30 -7 -17 5 -20 10 -12 24 6 10 10 21 10 24 0 11 -25 6 -43 -8z"/>
<path d="M4428 763 c7 -3 16 -2 19 1 4 3 -2 6 -13 5 -11 0 -14 -3 -6 -6z"/>
<path d="M4430 747 c-43 -11 -52 -19 -44 -40 9 -25 61 -22 74 4 19 35 9 47
-30 36z"/>
<path d="M3878 763 c7 -3 16 -2 19 1 4 3 -2 6 -13 5 -11 0 -14 -3 -6 -6z"/>
<path d="M3880 747 c-43 -11 -52 -19 -44 -40 9 -25 61 -22 74 4 19 35 9 47
-30 36z"/>
<path d="M4120 853 c26 -10 30 -25 30 -110 0 -49 4 -83 10 -83 15 0 12 140 -3
170 -7 14 -21 26 -32 27 -14 2 -15 1 -5 -4z"/>
<path d="M4670 853 c26 -10 30 -25 30 -110 0 -55 4 -83 11 -83 16 0 7 164 -10
184 -8 9 -21 16 -30 15 -13 0 -14 -2 -1 -6z"/>
<path d="M5078 844 c-44 -23 -36 -44 17 -44 42 0 45 2 35 19 -5 11 -15 22 -22
24 -7 3 -8 6 -3 6 15 1 30 -11 43 -34 6 -11 12 -14 12 -7 0 13 -35 52 -47 52
-5 -1 -20 -8 -35 -16z"/>
<path d="M5145 709 c-4 -6 -5 -13 -2 -16 7 -7 27 6 27 18 0 12 -17 12 -25 -2z"/>
<path d="M105 2534 c-40 -21 -64 -43 -84 -79 -15 -27 -16 -130 -16 -1165 0
-624 3 -1147 7 -1162 10 -35 53 -85 92 -106 29 -16 119 -17 1216 -20 652 -2
1208 0 1237 3 57 7 104 34 137 78 l21 28 0 1167 0 1167 -23 33 c-13 18 -41 41
-62 52 -38 20 -64 20 -1267 20 -1094 0 -1231 -2 -1258 -16z m2487 -52 c20 -13
47 -40 60 -60 l23 -37 0 -1105 c0 -1236 6 -1138 -72 -1197 l-36 -28 -1176 -3
c-647 -1 -1190 0 -1208 3 -43 8 -92 50 -114 100 -18 38 -19 94 -19 1123 0 952
2 1087 15 1119 21 50 42 72 90 94 38 18 91 19 1220 16 l1180 -2 37 -23z"/>
<path d="M1288 2153 l-38 -4 0 -869 0 -868 75 -7 c41 -4 86 -4 100 -1 l25 6
-2 873 -3 872 -60 1 c-33 1 -77 -1 -97 -3z"/>
<path d="M1081 2114 c-46 -14 -88 -27 -93 -30 -4 -3 -8 -311 -8 -685 l0 -679
-35 0 -35 0 0 660 c0 363 -3 660 -6 660 -13 0 -110 -64 -156 -102 l-48 -40 0
-618 0 -619 63 -51 c75 -61 235 -142 335 -169 l72 -20 0 860 c0 472 -1 859 -2
858 -2 0 -41 -11 -87 -25z"/>
<path d="M1530 1670 l0 -470 140 0 140 0 0 -240 0 -240 -45 0 -45 0 0 195 0
195 -95 0 -95 0 0 -345 c0 -396 -13 -358 110 -325 96 27 238 96 318 156 l62
47 0 359 0 358 -150 0 -150 0 0 245 0 245 45 0 45 0 0 -200 0 -200 105 0 105
0 0 233 0 234 -62 47 c-107 80 -331 176 -410 176 -17 0 -18 -27 -18 -470z"/>
</g>
</svg>
